<svg width="40" height="40" viewBox="0 0 40 40" fill="none" xmlns="http://www.w3.org/2000/svg">
<mask id="mask0_97_300" style="mask-type:alpha" maskUnits="userSpaceOnUse" x="0" y="0" width="40" height="40">
<rect width="40" height="40" fill="#D9D9D9"/>
</mask>
<g mask="url(#mask0_97_300)">
<path d="M35.8333 10.1071V29.8929C35.8333 30.6093 35.5779 31.2229 35.067 31.7337C34.5562 32.2446 33.9426 32.5 33.2262 32.5H6.77371C6.05732 32.5 5.44371 32.2446 4.93288 31.7337C4.42204 31.2229 4.16663 30.6093 4.16663 29.8929V10.1071C4.16663 9.39069 4.42204 8.77708 4.93288 8.26625C5.44371 7.75542 6.05732 7.5 6.77371 7.5H33.2262C33.9426 7.5 34.5562 7.75542 35.067 8.26625C35.5779 8.77708 35.8333 9.39069 35.8333 10.1071ZM6.26079 14.1925H33.7391V10.1071C33.7391 9.97875 33.6858 9.86111 33.5791 9.75417C33.4722 9.6475 33.3545 9.59417 33.2262 9.59417H6.77371C6.64538 9.59417 6.52774 9.6475 6.42079 9.75417C6.31413 9.86111 6.26079 9.97875 6.26079 10.1071V14.1925ZM6.26079 18.8758V29.8929C6.26079 30.0213 6.31413 30.1389 6.42079 30.2458C6.52774 30.3525 6.64538 30.4058 6.77371 30.4058H33.2262C33.3545 30.4058 33.4722 30.3525 33.5791 30.2458C33.6858 30.1389 33.7391 30.0213 33.7391 29.8929V18.8758H6.26079Z" fill="#1C1B1F"/>
</g>
</svg>
