<svg width="58" height="40" viewBox="0 0 58 40" fill="none" xmlns="http://www.w3.org/2000/svg">
<mask id="mask0_97_274" style="mask-type:alpha" maskUnits="userSpaceOnUse" x="0" y="0" width="58" height="40">
<rect y="0.0615234" width="58" height="39" fill="#D9D9D9"/>
</mask>
<g mask="url(#mask0_97_274)">
<path d="M50.025 35.1615L41.9974 29.7637V34.2324H38.9609V26.2594H50.8183V28.3012H44.112L52.1396 33.699L50.025 35.1615ZM29 34.999C25.8241 34.999 22.8395 34.5936 20.0463 33.7827C17.253 32.9718 14.8232 31.8713 12.757 30.4811C10.6907 29.0912 9.05505 27.4624 7.84994 25.5947C6.64443 23.7271 6.04167 21.7314 6.04167 19.6078C6.04167 17.4569 6.64423 15.4416 7.84934 13.562C9.05445 11.6824 10.6899 10.0448 12.7558 8.64924C14.8216 7.25391 17.251 6.1508 20.0438 5.33993C22.8367 4.52933 25.8207 4.12402 28.9958 4.12402C32.1713 4.12402 35.1561 4.52933 37.9501 5.33993C40.7442 6.15026 43.1746 7.25296 45.2412 8.64802C47.3079 10.0434 48.9442 11.6805 50.1501 13.5596C51.3556 15.4386 51.9583 17.4539 51.9583 19.6054C51.9583 20.1281 51.9251 20.6443 51.8587 21.154C51.7922 21.664 51.6792 22.1783 51.5197 22.697H48.346C48.543 22.1843 48.6882 21.6716 48.7816 21.1589C48.8751 20.6459 48.9218 20.1281 48.9218 19.6054C48.9218 18.9819 48.8578 18.355 48.7297 17.7245C48.6016 17.0942 48.405 16.469 48.14 15.8488H38.4498C38.5851 16.4725 38.691 17.096 38.7676 17.7192C38.8437 18.3426 38.8818 18.966 38.8818 19.5891C38.8818 20.1116 38.8608 20.631 38.8189 21.1475C38.7766 21.664 38.7134 22.1805 38.6292 22.697H35.5528C35.6507 22.1783 35.724 21.662 35.7727 21.1479C35.8214 20.6342 35.8458 20.1204 35.8458 19.6066C35.8458 18.9786 35.8118 18.3506 35.7437 17.7228C35.6752 17.0948 35.5667 16.4701 35.4181 15.8488H22.6285C22.4754 16.4725 22.3622 17.0965 22.2889 17.7208C22.2156 18.3448 22.179 18.9689 22.179 19.5932C22.179 20.2172 22.2156 20.8363 22.2889 21.4506C22.3622 22.0648 22.4698 22.6783 22.6115 23.2909H33.353V25.3323H23.2387C23.8175 26.7425 24.539 28.1109 25.4034 29.4375C26.2674 30.764 27.4662 31.9404 29 32.9666C29.7915 32.9666 30.5694 32.938 31.3339 32.8808C32.0984 32.8234 32.8747 32.7476 33.663 32.6533V34.6854C32.8747 34.7799 32.0984 34.8558 31.3339 34.9129C30.5694 34.9703 29.7915 34.999 29 34.999ZM9.85457 23.2909H19.5502C19.4117 22.6783 19.3092 22.0644 19.2427 21.4494C19.1763 20.8343 19.143 20.2191 19.143 19.6038C19.143 18.9752 19.1728 18.3476 19.2324 17.7212C19.2925 17.0945 19.3901 16.4704 19.5255 15.8488H9.85819C9.59357 16.469 9.39741 17.0941 9.26973 17.7241C9.14205 18.3543 9.07821 18.9845 9.07821 19.6147C9.07821 20.2355 9.14085 20.8518 9.26611 21.4636C9.39178 22.0751 9.58793 22.6842 9.85457 23.2909ZM10.9584 13.8074H20.0777C20.5481 12.4852 21.167 11.2054 21.9343 9.96793C22.7016 8.73022 23.6847 7.56144 24.8838 6.46159C21.8569 6.93933 19.1271 7.81358 16.6943 9.08433C14.2616 10.3554 12.3496 11.9297 10.9584 13.8074ZM24.8439 32.6448C23.7182 31.5387 22.7652 30.3714 21.985 29.1429C21.2044 27.9144 20.586 26.6442 20.1296 25.3323H10.9584C12.3065 27.2178 14.1965 28.8044 16.6285 30.0919C19.0609 31.3792 21.7993 32.2302 24.8439 32.6448ZM23.2387 13.8074H34.7861C34.2553 12.3853 33.5162 11.0223 32.5688 9.71849C31.6211 8.4147 30.4315 7.21626 29 6.12318C27.5581 7.21193 26.366 8.40928 25.4239 9.71524C24.4814 11.0212 23.753 12.3853 23.2387 13.8074ZM37.9405 13.8074H47.0416C45.6504 11.9297 43.7417 10.3497 41.3153 9.06727C38.8894 7.78515 36.1697 6.92214 33.1561 6.47824C34.2983 7.58433 35.2483 8.75622 36.0059 9.99393C36.7635 11.2316 37.4084 12.5028 37.9405 13.8074Z" fill="#1C1B1F"/>
</g>
</svg>
