<svg width="40" height="41" viewBox="0 0 40 41" fill="none" xmlns="http://www.w3.org/2000/svg">
<mask id="mask0_97_267" style="mask-type:alpha" maskUnits="userSpaceOnUse" x="0" y="0" width="40" height="41">
<rect x="-6.10352e-05" y="0.0616455" width="40" height="40" fill="#D9D9D9"/>
</mask>
<g mask="url(#mask0_97_267)">
<path d="M18.9624 34.6449L18.9624 31.2024C17.4591 30.9738 16.1965 30.4249 15.1745 29.5558C14.1528 28.6863 13.407 27.5387 12.937 26.1129L14.8791 25.2924C15.3577 26.583 16.0299 27.5598 16.8958 28.2229C17.7616 28.8859 18.8637 29.2174 20.202 29.2174C21.499 29.2174 22.6252 28.8945 23.5808 28.2487C24.536 27.6026 25.0137 26.637 25.0137 25.352C25.0137 24.1492 24.6315 23.2022 23.867 22.5108C23.1023 21.8197 21.6619 21.1294 19.5458 20.4399C17.4624 19.7747 15.9555 18.9584 15.0249 17.9912C14.0944 17.024 13.6291 15.791 13.6291 14.2924C13.6291 12.7505 14.1737 11.4906 15.2628 10.5129C16.3517 9.53536 17.5849 8.99674 18.9624 8.89702L18.9624 5.47827L21.0566 5.47827L21.0566 8.89702C22.2638 9.02452 23.3001 9.38924 24.1653 9.99119C25.0309 10.5929 25.7155 11.3998 26.2191 12.412L24.3087 13.2987C23.9134 12.4954 23.3785 11.8817 22.7041 11.4579C22.0297 11.0342 21.1592 10.8224 20.0928 10.8224C18.8159 10.8224 17.7684 11.1365 16.9503 11.7645C16.1323 12.3929 15.7233 13.2298 15.7233 14.2754C15.7233 15.3095 16.1131 16.1499 16.8928 16.7966C17.6728 17.4433 19.1697 18.1079 21.3833 18.7904C23.3422 19.407 24.7859 20.2406 25.7145 21.2912C26.6434 22.3417 27.1078 23.6634 27.1078 25.2562C27.1078 26.9734 26.5556 28.3455 25.4512 29.3724C24.347 30.3997 22.8822 31.0176 21.0566 31.2262L21.0566 34.6449L18.9624 34.6449Z" fill="#1D1D1D"/>
</g>
</svg>
