<svg width="40" height="40" viewBox="0 0 40 40" fill="none" xmlns="http://www.w3.org/2000/svg">
<mask id="mask0_97_297" style="mask-type:alpha" maskUnits="userSpaceOnUse" x="0" y="0" width="40" height="40">
<rect width="40" height="40" fill="#D9D9D9"/>
</mask>
<g mask="url(#mask0_97_297)">
<path d="M8.54712 30.7541V33.1195C8.54712 33.4162 8.44671 33.6648 8.24587 33.8654C8.04532 34.0662 7.79671 34.1666 7.50004 34.1666H6.88046C6.58379 34.1666 6.33518 34.0662 6.13462 33.8654C5.93379 33.6648 5.83337 33.4162 5.83337 33.1195V20.252L9.25421 10.2137C9.36699 9.89093 9.56254 9.63579 9.84087 9.44829C10.1195 9.26052 10.4318 9.16663 10.778 9.16663H29.2863C29.6241 9.16663 29.9239 9.26024 30.1859 9.44746C30.4475 9.63496 30.6342 9.89038 30.7459 10.2137L34.1667 20.252V33.1195C34.1667 33.4162 34.0663 33.6648 33.8655 33.8654C33.6649 34.0662 33.4163 34.1666 33.1196 34.1666H32.483C32.1788 34.1666 31.931 34.0662 31.7396 33.8654C31.5485 33.6648 31.453 33.4162 31.453 33.1195V30.7541H8.54712ZM8.75421 18.1583H31.2459L28.8784 11.2608H11.1217L8.75421 18.1583ZM12.1492 26.5341C12.7314 26.5341 13.2203 26.3327 13.6159 25.93C14.0114 25.5272 14.2092 25.0404 14.2092 24.4695C14.2092 23.8832 14.0078 23.388 13.605 22.9841C13.2023 22.5802 12.7167 22.3783 12.1484 22.3783C11.5642 22.3783 11.0691 22.5808 10.663 22.9858C10.2566 23.3911 10.0534 23.8859 10.0534 24.4704C10.0534 25.0548 10.2571 25.545 10.6646 25.9408C11.0721 26.3363 11.567 26.5341 12.1492 26.5341ZM27.8763 26.5341C28.4582 26.5341 28.9517 26.3327 29.3567 25.93C29.7614 25.5272 29.9638 25.0404 29.9638 24.4695C29.9638 23.8832 29.7607 23.388 29.3546 22.9841C28.9485 22.5802 28.4555 22.3783 27.8755 22.3783C27.2955 22.3783 26.8059 22.5808 26.4067 22.9858C26.0075 23.3911 25.808 23.8859 25.808 24.4704C25.808 25.0548 26.011 25.545 26.4171 25.9408C26.8235 26.3363 27.3099 26.5341 27.8763 26.5341ZM7.92754 28.6604H32.0725V20.252H7.92754V28.6604Z" fill="#1D1D1D"/>
</g>
</svg>
