<svg width="234" height="30" viewBox="0 0 234 30" fill="none" xmlns="http://www.w3.org/2000/svg">
<path d="M28.8984 17.2812C28.8984 18.987 28.599 20.556 28 21.9883C27.4141 23.4206 26.6003 24.6576 25.5586 25.6992C24.5169 26.7279 23.2799 27.5352 21.8477 28.1211C20.4154 28.707 18.8594 29 17.1797 29H3.46875C3.10417 29 2.76562 28.9349 2.45312 28.8047C2.14062 28.6745 1.86719 28.4987 1.63281 28.2773C1.41146 28.043 1.23568 27.7695 1.10547 27.457C0.97526 27.1445 0.910156 26.806 0.910156 26.4414V3.55078C0.910156 3.19922 0.97526 2.86719 1.10547 2.55469C1.23568 2.24219 1.41146 1.96875 1.63281 1.73438C1.86719 1.5 2.14062 1.31771 2.45312 1.1875C2.76562 1.05729 3.10417 0.992188 3.46875 0.992188H17.1797C18.8594 0.992188 20.4154 1.28516 21.8477 1.87109C23.2799 2.45703 24.5169 3.27083 25.5586 4.3125C26.6003 5.34115 27.4141 6.57812 28 8.02344C28.599 9.45573 28.8984 11.0182 28.8984 12.7109V17.2812ZM23.8203 12.7109C23.8203 11.7214 23.6576 10.8164 23.332 9.99609C23.0195 9.17578 22.5703 8.47917 21.9844 7.90625C21.3984 7.32031 20.6953 6.87109 19.875 6.55859C19.0677 6.23307 18.1693 6.07031 17.1797 6.07031H5.98828V23.9219H17.1797C18.1693 23.9219 19.0677 23.7656 19.875 23.4531C20.6953 23.1276 21.3984 22.6784 21.9844 22.1055C22.5703 21.5195 23.0195 20.8229 23.332 20.0156C23.6576 19.1953 23.8203 18.2839 23.8203 17.2812V12.7109ZM58.4062 17.5547H42.3711V12.4375H58.4062V17.5547ZM60.6914 29H42.3711C41.668 29 40.8997 28.8763 40.0664 28.6289C39.2331 28.3815 38.4583 27.9779 37.7422 27.418C37.0391 26.8451 36.4466 26.1094 35.9648 25.2109C35.4961 24.2995 35.2617 23.1862 35.2617 21.8711V3.55078C35.2617 3.19922 35.3268 2.86719 35.457 2.55469C35.5872 2.24219 35.763 1.96875 35.9844 1.73438C36.2188 1.5 36.4922 1.31771 36.8047 1.1875C37.1172 1.05729 37.4557 0.992188 37.8203 0.992188H60.6914V6.07031H40.3398V21.8711C40.3398 22.5352 40.5156 23.043 40.8672 23.3945C41.2188 23.7461 41.7331 23.9219 42.4102 23.9219H60.6914V29ZM95.1406 0.992188L81.8789 28.0039C81.6706 28.4206 81.3581 28.7526 80.9414 29C80.5378 29.2604 80.0885 29.3906 79.5938 29.3906C79.112 29.3906 78.6628 29.2604 78.2461 29C77.8424 28.7526 77.5299 28.4206 77.3086 28.0039L64.0664 0.992188H69.75L79.5938 21.168L89.4766 0.992188H95.1406ZM127.461 22.8477C127.461 23.4727 127.35 24.1432 127.129 24.8594C126.921 25.5755 126.569 26.2396 126.074 26.8516C125.592 27.4635 124.961 27.9779 124.18 28.3945C123.398 28.7982 122.441 29 121.309 29H102.031C101.667 29 101.328 28.9349 101.016 28.8047C100.703 28.6745 100.43 28.4987 100.195 28.2773C99.974 28.043 99.7982 27.7695 99.668 27.457C99.5378 27.1445 99.4727 26.806 99.4727 26.4414V3.55078C99.4727 3.19922 99.5378 2.86719 99.668 2.55469C99.7982 2.24219 99.974 1.96875 100.195 1.73438C100.43 1.5 100.703 1.31771 101.016 1.1875C101.328 1.05729 101.667 0.992188 102.031 0.992188H119.023C119.648 0.992188 120.319 1.10286 121.035 1.32422C121.751 1.54557 122.415 1.90365 123.027 2.39844C123.652 2.88021 124.167 3.51172 124.57 4.29297C124.987 5.07422 125.195 6.03125 125.195 7.16406V8.12109C125.195 9.01953 125.046 9.98958 124.746 11.0312C124.447 12.0599 123.965 13.0365 123.301 13.9609C123.874 14.3125 124.408 14.7357 124.902 15.2305C125.41 15.7253 125.853 16.2982 126.23 16.9492C126.608 17.6003 126.908 18.3359 127.129 19.1562C127.35 19.9766 127.461 20.8815 127.461 21.8711V22.8477ZM122.383 21.8711C122.383 21.207 122.279 20.6146 122.07 20.0938C121.862 19.5599 121.569 19.1042 121.191 18.7266C120.814 18.349 120.358 18.0625 119.824 17.8672C119.29 17.6589 118.691 17.5547 118.027 17.5547H106.582V12.4375H115.742C116.406 12.4375 117.005 12.3398 117.539 12.1445C118.073 11.9362 118.529 11.6432 118.906 11.2656C119.284 10.888 119.57 10.4388 119.766 9.91797C119.974 9.38411 120.078 8.78516 120.078 8.12109V7.16406C120.078 6.4349 119.727 6.07031 119.023 6.07031H104.551V23.9219H121.309C121.4 23.9219 121.51 23.9154 121.641 23.9023C121.771 23.8893 121.888 23.8503 121.992 23.7852C122.096 23.7201 122.188 23.6094 122.266 23.4531C122.344 23.2969 122.383 23.082 122.383 22.8086V21.8711ZM160.875 29H155.797V22.125H137.945V29H132.867V14.9961C132.867 12.9518 133.219 11.0703 133.922 9.35156C134.625 7.63281 135.602 6.15495 136.852 4.91797C138.102 3.68099 139.579 2.71745 141.285 2.02734C142.991 1.33724 144.853 0.992188 146.871 0.992188H158.316C158.668 0.992188 159 1.05729 159.312 1.1875C159.625 1.31771 159.898 1.5 160.133 1.73438C160.367 1.96875 160.549 2.24219 160.68 2.55469C160.81 2.86719 160.875 3.19922 160.875 3.55078V29ZM137.945 17.0469H155.797V6.07031H146.871C146.715 6.07031 146.383 6.09635 145.875 6.14844C145.38 6.1875 144.801 6.29818 144.137 6.48047C143.486 6.66276 142.796 6.94271 142.066 7.32031C141.337 7.69792 140.667 8.21875 140.055 8.88281C139.443 9.54688 138.935 10.3802 138.531 11.3828C138.141 12.3724 137.945 13.5768 137.945 14.9961V17.0469ZM196.281 26.832C196.281 27.1966 196.21 27.5352 196.066 27.8477C195.936 28.1602 195.754 28.4336 195.52 28.668C195.298 28.8893 195.031 29.0651 194.719 29.1953C194.406 29.3255 194.074 29.3906 193.723 29.3906C193.41 29.3906 193.091 29.332 192.766 29.2148C192.453 29.0977 192.173 28.9089 191.926 28.6484L173.371 9.27344V29H168.293V3.16016C168.293 2.63932 168.436 2.17057 168.723 1.75391C169.022 1.32422 169.4 1.00521 169.855 0.796875C170.337 0.601562 170.832 0.55599 171.34 0.660156C171.848 0.751302 172.284 0.985677 172.648 1.36328L191.203 20.7188V0.992188H196.281V26.832ZM233.055 29H225.848L214.422 17.5547H210.848V12.4375H214.422L225.848 0.992188H233.055L218.66 14.9961L233.055 29ZM208.816 29H203.738V0.992188H208.816V29Z" fill="#D1E9E4"/>
</svg>
