<svg width="97" height="90" viewBox="0 0 97 90" fill="none" xmlns="http://www.w3.org/2000/svg">
<path d="M56.3225 69.1184C48.6819 66.4038 40.8229 65.9862 33.6189 67.8656C28.5979 69.1185 23.7952 71.6242 19.4291 74.7565L16.3728 77.2623L15.4996 78.0976L17.4643 79.7681C17.6826 79.7681 17.6827 79.9769 17.901 80.1858C18.3376 80.6034 18.7742 80.8122 19.4291 81.2298L20.7389 82.0651L22.0487 81.021C22.267 80.8122 22.7036 80.3946 23.1402 80.1858C27.0697 77.0535 31.4358 74.9653 36.0202 73.9212C41.9144 72.4595 48.2452 72.6683 54.576 74.9653C59.8153 76.8447 70.5123 79.1417 83.3922 73.9212L83.8288 73.7124L84.4837 73.086C84.4837 72.8772 84.7021 72.8771 84.9204 72.6683C86.0119 71.4154 87.1034 70.1625 87.9766 68.7008L92.3427 62.2275L85.3569 65.9862C75.0966 71.4154 65.7096 72.4595 56.3225 69.1184Z" fill="url(#paint0_linear_97_233)"/>
<path d="M26.4148 46.5661C32.3091 45.1044 38.6399 45.3132 44.9707 47.6102C51.9564 50.116 69.8574 53.6659 89.9414 36.3341L93.2159 33.2019L93.4342 32.993L94.3074 32.1578L93.8708 31.1137C93.6525 30.2784 93.2159 29.2344 92.7793 28.1903L91.6878 25.2668L89.5047 27.355C89.2864 27.7726 88.8498 27.9814 88.4132 28.399C78.8078 37.7958 63.9631 47.4014 46.9354 41.5545C39.2948 38.8399 31.4358 38.4223 24.2318 40.3016C17.2461 42.181 11.1335 45.7309 5.45764 50.7425V50.5336L2.18308 53.8747C2.18308 54.0835 1.96482 54.0836 1.74651 54.2924L1.09156 54.9188L1.30988 55.7541C1.52818 56.7982 1.96478 57.8422 2.18308 58.8863L3.49292 62.2274L5.67596 59.5128C5.89426 59.0952 6.33086 58.8864 6.54916 58.4687C11.1335 54.5012 17.4644 48.8631 26.4148 46.5661Z" fill="url(#paint1_linear_97_233)"/>
<path d="M5.23935 42.8075C10.2603 37.7958 15.9362 34.6636 22.0487 32.993C27.9429 31.5313 34.2738 31.7401 40.6046 34.0371C60.2519 40.9281 77.2797 29.652 84.702 23.5963L87.54 20.8817L88.6315 20.0464L87.7583 18.7935C87.1034 18.1671 86.6668 17.3318 86.0119 16.4965L84.702 14.8259L83.1739 16.2877C82.9556 16.4965 82.519 16.9141 82.3007 17.1229C73.1319 25.4756 58.9421 34.0371 42.7876 28.1903C35.147 25.4756 27.288 25.058 20.084 26.9373C15.4996 28.1903 11.1335 30.2784 6.76744 32.993L2.18304 36.5429C1.74643 36.9606 1.52813 37.1694 1.09152 37.587L0.654952 38.0046V38.6311C0.436648 40.0928 0.436622 41.5546 0.218317 42.8075L0 48.0279L3.7112 44.2691C4.1478 43.8515 4.58444 43.2251 5.23935 42.8075Z" fill="url(#paint2_linear_97_233)"/>
<path d="M62.6534 83.3179L62.2168 84.5709L62.6534 83.3179C61.9985 83.1091 61.5619 82.9003 60.907 82.6914C53.2664 79.9768 45.4074 79.5592 38.2033 81.4386C36.6752 81.8562 35.1471 82.2738 33.619 82.9003L28.3796 85.1973L27.0699 85.8237L31.4359 87.2854C32.7458 87.7031 34.0556 88.1207 35.3654 88.5384L36.0203 88.7472L36.6752 88.5384C37.3301 88.3295 37.985 87.9119 38.64 87.9119C39.0766 87.9119 39.5132 87.7031 39.9498 87.4943C45.1891 86.2414 50.865 86.2413 56.9775 88.1207C57.6324 88.3295 58.069 88.5384 58.724 88.7472L59.8155 89.1648L60.4704 88.956C61.9985 88.5383 63.7449 88.1207 65.0548 87.4943L71.1672 85.4061L64.8364 83.9444C64.1815 83.7355 63.3083 83.5268 62.6534 83.3179Z" fill="url(#paint3_linear_97_233)"/>
<path d="M96.0538 40.0927L92.7792 43.225C92.3426 43.6426 91.906 44.0602 91.4694 44.4779C82.519 52.6217 68.1109 61.392 51.9564 55.5452C44.3157 52.8305 36.4568 52.413 29.2528 54.2923C22.4853 56.1717 16.3728 59.5127 10.9152 64.5243L8.07722 67.4478L7.20402 68.4918L8.07722 69.7447C8.73214 70.58 9.16877 71.2065 9.60538 72.0417L10.9152 73.9211L12.4433 72.0417C12.6616 71.8329 13.0982 71.4152 13.3165 71.2064C18.5558 65.7772 24.2317 62.4361 30.7808 60.7656C36.675 59.3039 43.0059 59.5127 49.3367 61.8097C54.7943 63.689 60.4702 64.3155 66.1461 63.6891C76.1881 62.645 86.2301 57.2157 93.6525 51.1601C94.0891 50.7424 94.5256 50.5336 94.9622 50.116L95.6172 49.4895V48.8631C95.6172 47.6101 95.8355 46.1484 95.8355 44.8955L96.0538 40.0927Z" fill="url(#paint4_linear_97_233)"/>
<path d="M13.0982 20.8817L12.4433 19.6288L13.0982 20.8817C14.4081 20.2552 15.9362 19.8376 17.2461 19.4199C23.1403 17.9582 29.4711 18.167 35.8019 20.464C39.9497 21.9257 44.0975 22.5522 48.6818 22.5522C57.8506 22.5522 67.0194 19.42 75.5332 13.3643L78.8078 10.8584L79.8993 10.0232L77.9346 8.56143C77.2797 7.93498 76.4064 7.30855 75.5332 6.89092L74.2234 6.05566L73.1319 6.89092C72.6953 7.09974 72.477 7.51736 72.0403 7.72617C60.4702 16.0789 48.9002 18.3759 37.985 14.4083C30.126 11.6937 22.267 11.0673 14.4081 13.3643C13.7532 13.5731 13.0982 13.7819 12.225 13.9907L11.7885 14.1995L11.1335 14.8259C11.1335 15.0348 10.9152 15.0348 10.6969 15.2436C9.82373 16.4965 8.73217 17.5406 7.85895 18.7935L3.71119 24.8492L10.4786 21.5081C11.5701 21.5081 12.4433 21.0905 13.0982 20.8817Z" fill="url(#paint5_linear_97_233)"/>
<path d="M30.9993 6.6821L31.6542 6.89093C34.4921 7.93502 38.8583 8.9791 44.3159 8.9791C49.9918 8.9791 55.4494 7.72619 60.907 5.63802L67.6744 2.50577L63.09 1.04408C61.7802 0.626451 60.4703 0.208817 58.9422 0H58.2873L57.6324 0.208766C56.9775 0.417583 56.3225 0.835268 55.6676 1.04408C49.1185 3.34107 42.5694 3.75871 36.2386 2.08817C35.5837 1.87935 34.9288 1.6705 34.2739 1.46168L33.619 1.25285L32.964 1.46168C31.6542 1.87931 30.3444 2.29697 29.0346 2.92342L24.0135 5.01159L29.2529 6.47327C29.6895 6.26446 30.3444 6.47329 30.9993 6.6821Z" fill="url(#paint6_linear_97_233)"/>
<defs>
<linearGradient id="paint0_linear_97_233" x1="15.4996" y1="77.2266" x2="46.6925" y2="36.1761" gradientUnits="userSpaceOnUse">
<stop offset="0.489226" stop-color="#6211B4"/>
<stop offset="0.964496" stop-color="#25084C"/>
</linearGradient>
<linearGradient id="paint1_linear_97_233" x1="1.09156" y1="53.2125" x2="60.7011" y2="2.1369" gradientUnits="userSpaceOnUse">
<stop offset="0.489226" stop-color="#6211B4"/>
<stop offset="0.964496" stop-color="#25084C"/>
</linearGradient>
<linearGradient id="paint2_linear_97_233" x1="-1.42831e-06" y1="39.9297" x2="53.9305" y2="-8.98119" gradientUnits="userSpaceOnUse">
<stop offset="0.489226" stop-color="#6211B4"/>
<stop offset="0.964496" stop-color="#25084C"/>
</linearGradient>
<linearGradient id="paint3_linear_97_233" x1="27.0699" y1="86.999" x2="39.7825" y2="65.5498" gradientUnits="userSpaceOnUse">
<stop offset="0.489226" stop-color="#6211B4"/>
<stop offset="0.964496" stop-color="#25084C"/>
</linearGradient>
<linearGradient id="paint4_linear_97_233" x1="7.20402" y1="65.6701" x2="62.0581" y2="16.7226" gradientUnits="userSpaceOnUse">
<stop offset="0.489226" stop-color="#6211B4"/>
<stop offset="0.964496" stop-color="#25084C"/>
</linearGradient>
<linearGradient id="paint5_linear_97_233" x1="3.71118" y1="20.2653" x2="32.8764" y2="-19.9037" gradientUnits="userSpaceOnUse">
<stop offset="0.489226" stop-color="#6211B4"/>
<stop offset="0.964496" stop-color="#25084C"/>
</linearGradient>
<linearGradient id="paint6_linear_97_233" x1="24.0135" y1="6.78904" x2="36.9976" y2="-14.6604" gradientUnits="userSpaceOnUse">
<stop offset="0.489226" stop-color="#6211B4"/>
<stop offset="0.964496" stop-color="#25084C"/>
</linearGradient>
</defs>
</svg>
