<svg width="40" height="41" viewBox="0 0 40 41" fill="none" xmlns="http://www.w3.org/2000/svg">
<mask id="mask0_97_309" style="mask-type:alpha" maskUnits="userSpaceOnUse" x="0" y="0" width="40" height="41">
<rect y="0.0615234" width="40" height="40" fill="#D9D9D9"/>
</mask>
<g mask="url(#mask0_97_309)">
<path d="M9.83125 29.1899V15.4887H11.9254V29.1899H9.83125ZM19.0321 29.1899V15.4887H21.1258V29.1899H19.0321ZM4.61542 12.5616V10.737L20 2.64075L35.3846 10.737V12.5616H4.61542ZM9.64333 10.4674H30.3675L20 5.02741L9.64333 10.4674ZM4.61542 34.2112V32.117H24.2746C24.3088 32.4676 24.3483 32.8103 24.3933 33.1453C24.4381 33.4806 24.5171 33.8359 24.6304 34.2112H4.61542ZM28.0746 23.3553V15.4887H30.1688V22.3087L28.0746 23.3553ZM33.3333 39.4203C31.5556 38.9803 30.0854 37.9617 28.9229 36.3645C27.7607 34.7673 27.1796 32.9932 27.1796 31.0424V27.1128L33.3333 24.0362L39.4871 27.1128V31.0424C39.4871 32.9932 38.906 34.7673 37.7438 36.3645C36.5813 37.9617 35.1111 38.9803 33.3333 39.4203ZM32.2829 34.7091L37.7683 29.2324L36.6633 28.117L32.2829 32.4803L30.2521 30.4495L29.1475 31.5628L32.2829 34.7091Z" fill="#1D1D1D"/>
</g>
</svg>
