<svg width="40" height="40" viewBox="0 0 40 40" fill="none" xmlns="http://www.w3.org/2000/svg">
<mask id="mask0_97_303" style="mask-type:alpha" maskUnits="userSpaceOnUse" x="0" y="0" width="40" height="40">
<rect width="40" height="40" fill="#D9D9D9"/>
</mask>
<g mask="url(#mask0_97_303)">
<path d="M15.1071 35.4058H24.8929C25.0426 35.4058 25.1656 35.3578 25.2617 35.2617C25.3578 35.1656 25.4058 35.0426 25.4058 34.8929V25.1525C24.735 25.8706 23.9368 26.4412 23.0113 26.8646C22.0857 27.2882 21.0819 27.5 20 27.5C18.9181 27.5 17.9143 27.2882 16.9888 26.8646C16.0632 26.4412 15.265 25.8706 14.5942 25.1525V34.8929C14.5942 35.0426 14.6422 35.1656 14.7383 35.2617C14.8344 35.3578 14.9574 35.4058 15.1071 35.4058ZM19.9921 25.4058C21.4915 25.4058 22.7688 24.8811 23.8238 23.8317C24.8785 22.7819 25.4058 21.5074 25.4058 20.0079C25.4058 18.5085 24.8811 17.2312 23.8317 16.1762C22.7819 15.1215 21.5074 14.5942 20.0079 14.5942C18.5085 14.5942 17.2313 15.1189 16.1763 16.1683C15.1215 17.2181 14.5942 18.4926 14.5942 19.9921C14.5942 21.4915 15.1189 22.7687 16.1683 23.8237C17.2181 24.8785 18.4926 25.4058 19.9921 25.4058ZM14.5942 14.8475C15.265 14.1294 16.0632 13.5588 16.9888 13.1354C17.9143 12.7118 18.9181 12.5 20 12.5C21.0819 12.5 22.0857 12.7118 23.0113 13.1354C23.9368 13.5588 24.735 14.1294 25.4058 14.8475V5.10708C25.4058 4.95736 25.3578 4.83444 25.2617 4.73833C25.1656 4.64222 25.0426 4.59417 24.8929 4.59417H15.1071C14.9574 4.59417 14.8344 4.64222 14.7383 4.73833C14.6422 4.83444 14.5942 4.95736 14.5942 5.10708V14.8475ZM15.1071 37.5C14.3907 37.5 13.7771 37.2446 13.2663 36.7337C12.7554 36.2229 12.5 35.6093 12.5 34.8929V5.10708C12.5 4.39069 12.7554 3.77708 13.2663 3.26625C13.7771 2.75542 14.3907 2.5 15.1071 2.5H24.8929C25.6093 2.5 26.2229 2.75542 26.7337 3.26625C27.2446 3.77708 27.5 4.39069 27.5 5.10708V34.8929C27.5 35.6093 27.2446 36.2229 26.7337 36.7337C26.2229 37.2446 25.6093 37.5 24.8929 37.5H15.1071ZM19.9967 22.185C19.3897 22.185 18.8744 21.9725 18.4508 21.5475C18.0269 21.1228 17.815 20.6071 17.815 20.0004C17.815 19.3935 18.0275 18.8757 18.4525 18.4471C18.8772 18.0187 19.3929 17.8046 19.9996 17.8046C20.6065 17.8046 21.1243 18.0193 21.5529 18.4488C21.9813 18.8785 22.1954 19.3967 22.1954 20.0033C22.1954 20.6103 21.9807 21.1256 21.5512 21.5492C21.1215 21.9731 20.6033 22.185 19.9967 22.185ZM20.0042 9.5725C20.3497 9.5725 20.6419 9.45167 20.8808 9.21C21.1197 8.96805 21.2392 8.67445 21.2392 8.32917C21.2392 7.98361 21.1183 7.69139 20.8767 7.4525C20.6347 7.21361 20.3411 7.09417 19.9958 7.09417C19.6503 7.09417 19.3581 7.215 19.1192 7.45667C18.8803 7.69861 18.7608 7.99222 18.7608 8.3375C18.7608 8.68305 18.8817 8.97528 19.1233 9.21417C19.3653 9.45306 19.6589 9.5725 20.0042 9.5725Z" fill="#1C1B1F"/>
</g>
</svg>
